<svg width="130" height="53" viewBox="0 0 130 53" fill="none" xmlns="http://www.w3.org/2000/svg">
<path d="M1.82895 5.30396C0.933261 2.70646 2.86284 0 5.61044 0H117.148C118.855 0 120.373 1.0827 120.93 2.69604L128.171 23.696C129.067 26.2935 127.137 29 124.39 29H12.8518C11.1453 29 9.62665 27.9173 9.07033 26.304L1.82895 5.30396Z" fill="#4A60A1"/>
<path d="M19.7216 23V5.54545H22.8835V20.3494H30.571V23H19.7216ZM48.2802 14.2727C48.2802 16.1534 47.928 17.7642 47.2234 19.1051C46.5246 20.4403 45.57 21.4631 44.3598 22.1733C43.1552 22.8835 41.7888 23.2386 40.2604 23.2386C38.7319 23.2386 37.3626 22.8835 36.1524 22.1733C34.9479 21.4574 33.9933 20.4318 33.2888 19.0966C32.5899 17.7557 32.2405 16.1477 32.2405 14.2727C32.2405 12.392 32.5899 10.7841 33.2888 9.44886C33.9933 8.10795 34.9479 7.08239 36.1524 6.37216C37.3626 5.66193 38.7319 5.30682 40.2604 5.30682C41.7888 5.30682 43.1552 5.66193 44.3598 6.37216C45.57 7.08239 46.5246 8.10795 47.2234 9.44886C47.928 10.7841 48.2802 12.392 48.2802 14.2727ZM45.1013 14.2727C45.1013 12.9489 44.8939 11.8324 44.4791 10.9233C44.07 10.0085 43.5018 9.31818 42.7746 8.85227C42.0473 8.38068 41.2092 8.14489 40.2604 8.14489C39.3115 8.14489 38.4734 8.38068 37.7462 8.85227C37.0189 9.31818 36.4479 10.0085 36.0331 10.9233C35.624 11.8324 35.4194 12.9489 35.4194 14.2727C35.4194 15.5966 35.624 16.7159 36.0331 17.6307C36.4479 18.5398 37.0189 19.2301 37.7462 19.7017C38.4734 20.1676 39.3115 20.4006 40.2604 20.4006C41.2092 20.4006 42.0473 20.1676 42.7746 19.7017C43.5018 19.2301 44.07 18.5398 44.4791 17.6307C44.8939 16.7159 45.1013 15.5966 45.1013 14.2727ZM51.3176 23V5.54545H54.4795V13.5653H54.6926L61.5023 5.54545H65.363L58.613 13.3778L65.4227 23H61.6216L56.4142 15.517L54.4795 17.8011V23H51.3176ZM69.8493 23H66.4743L72.6191 5.54545H76.5226L82.676 23H79.301L74.639 9.125H74.5027L69.8493 23ZM69.9601 16.1562H79.1646V18.696H69.9601V16.1562ZM85.023 23V5.54545H88.1849V20.3494H95.8724V23H85.023ZM98.6647 23V5.54545H110.017V8.19602H101.827V12.9347H109.429V15.5852H101.827V20.3494H110.085V23H98.6647Z" fill="white"/>
<path d="M19.7216 50V32.5455H22.8835V47.3494H30.571V50H19.7216ZM48.2802 41.2727C48.2802 43.1534 47.928 44.7642 47.2234 46.1051C46.5246 47.4403 45.57 48.4631 44.3598 49.1733C43.1552 49.8835 41.7888 50.2386 40.2604 50.2386C38.7319 50.2386 37.3626 49.8835 36.1524 49.1733C34.9479 48.4574 33.9933 47.4318 33.2888 46.0966C32.5899 44.7557 32.2405 43.1477 32.2405 41.2727C32.2405 39.392 32.5899 37.7841 33.2888 36.4489C33.9933 35.108 34.9479 34.0824 36.1524 33.3722C37.3626 32.6619 38.7319 32.3068 40.2604 32.3068C41.7888 32.3068 43.1552 32.6619 44.3598 33.3722C45.57 34.0824 46.5246 35.108 47.2234 36.4489C47.928 37.7841 48.2802 39.392 48.2802 41.2727ZM45.1013 41.2727C45.1013 39.9489 44.8939 38.8324 44.4791 37.9233C44.07 37.0085 43.5018 36.3182 42.7746 35.8523C42.0473 35.3807 41.2092 35.1449 40.2604 35.1449C39.3115 35.1449 38.4734 35.3807 37.7462 35.8523C37.0189 36.3182 36.4479 37.0085 36.0331 37.9233C35.624 38.8324 35.4194 39.9489 35.4194 41.2727C35.4194 42.5966 35.624 43.7159 36.0331 44.6307C36.4479 45.5398 37.0189 46.2301 37.7462 46.7017C38.4734 47.1676 39.3115 47.4006 40.2604 47.4006C41.2092 47.4006 42.0473 47.1676 42.7746 46.7017C43.5018 46.2301 44.07 45.5398 44.4791 44.6307C44.8939 43.7159 45.1013 42.5966 45.1013 41.2727ZM51.3176 50V32.5455H54.4795V40.5653H54.6926L61.5023 32.5455H65.363L58.613 40.3778L65.4227 50H61.6216L56.4142 42.517L54.4795 44.8011V50H51.3176ZM69.8493 50H66.4743L72.6191 32.5455H76.5226L82.676 50H79.301L74.639 36.125H74.5027L69.8493 50ZM69.9601 43.1562H79.1646V45.696H69.9601V43.1562ZM85.023 50V32.5455H88.1849V47.3494H95.8724V50H85.023ZM98.6647 50V32.5455H110.017V35.196H101.827V39.9347H109.429V42.5852H101.827V47.3494H110.085V50H98.6647ZM113.291 50V32.5455H119.836C121.177 32.5455 122.302 32.7784 123.211 33.2443C124.126 33.7102 124.816 34.3636 125.282 35.2045C125.754 36.0398 125.99 37.0142 125.99 38.1278C125.99 39.2472 125.751 40.2187 125.274 41.0426C124.802 41.8608 124.106 42.4943 123.186 42.9432C122.265 43.3864 121.135 43.608 119.794 43.608H115.132V40.983H119.368C120.152 40.983 120.794 40.875 121.294 40.6591C121.794 40.4375 122.163 40.1165 122.402 39.696C122.646 39.2699 122.768 38.7472 122.768 38.1278C122.768 37.5085 122.646 36.9801 122.402 36.5426C122.157 36.0994 121.785 35.7642 121.285 35.5369C120.785 35.304 120.14 35.1875 119.351 35.1875H116.453V50H113.291ZM122.308 42.0909L126.629 50H123.101L118.856 42.0909H122.308Z" fill="black"/>
</svg>
