<svg width="18" height="18" viewBox="0 0 18 18" fill="none" xmlns="http://www.w3.org/2000/svg">
<path d="M7.6866 3.4791L7.03169 3.8446V3.8446L7.6866 3.4791ZM7.03759 2.31617L6.38268 2.68167V2.68167L7.03759 2.31617ZM1.75601 4.9615C1.7717 4.54758 1.44888 4.19932 1.03496 4.18363C0.621047 4.16793 0.272781 4.49076 0.25709 4.90468L1.75601 4.9615ZM4.6677 13.3323L5.19803 12.802L4.6677 13.3323ZM8.02451 9.97548L8.55484 9.44515L8.02451 9.97548ZM14.5209 10.3134L14.1554 10.9683L14.5209 10.3134ZM15.6838 10.9624L16.0493 10.3075V10.3075L15.6838 10.9624ZM13.0669 16.9934L13.0953 17.7429H13.0953L13.0669 16.9934ZM16.0628 15.4622L16.5931 15.9925H16.5931L16.0628 15.4622ZM2.00748 1.4069C1.71458 1.69979 1.71458 2.17467 2.00748 2.46756C2.30037 2.76045 2.77524 2.76045 3.06814 2.46756L2.00748 1.4069ZM10.2067 15.8901C9.80855 15.776 9.39322 16.0062 9.27905 16.4044C9.16488 16.8025 9.39511 17.2179 9.79328 17.332L10.2067 15.8901ZM6.59346 15.863C6.94155 16.0875 7.40574 15.9874 7.63026 15.6393C7.85478 15.2912 7.75462 14.827 7.40654 14.6025L6.59346 15.863ZM7.11471 6.8278L6.58435 6.2975L7.11471 6.8278ZM7.11471 6.8278L7.64504 7.35813L7.11471 6.8278ZM11.1722 10.8853L10.6421 10.3548L11.1722 10.8853ZM11.1722 10.8853L10.6419 10.3549L11.1722 10.8853ZM8.34152 3.1136L7.6925 1.95067L6.38268 2.68167L7.03169 3.8446L8.34152 3.1136ZM0.25709 4.90468C0.178202 6.98561 0.715589 10.4408 4.13737 13.8626L5.19803 12.802C2.11867 9.7226 1.69023 6.69684 1.75601 4.9615L0.25709 4.90468ZM8.55484 9.44515C7.63642 8.52673 7.54538 7.93395 7.55793 7.67763C7.5714 7.40249 7.7146 7.28857 7.64506 7.35811L6.58435 6.2975C6.5147 6.36715 6.09848 6.81276 6.05973 7.60427C6.02005 8.4146 6.38398 9.39561 7.49418 10.5058L8.55484 9.44515ZM14.1554 10.9683L15.3183 11.6173L16.0493 10.3075L14.8864 9.65848L14.1554 10.9683ZM7.49418 10.5058C8.60403 11.6157 9.58476 11.9797 10.395 11.9403C11.1865 11.9018 11.6323 11.4858 11.7023 11.4158L10.6421 10.3548C10.7113 10.2856 10.5973 10.4287 10.3221 10.4421C10.0657 10.4545 9.47297 10.3633 8.55484 9.44515L7.49418 10.5058ZM15.5324 14.9319C14.7571 15.7072 13.9013 16.2113 13.0385 16.244L13.0953 17.7429C14.4995 17.6897 15.6944 16.8912 16.5931 15.9925L15.5324 14.9319ZM15.3183 11.6173C16.3917 12.2163 16.6383 13.826 15.5324 14.9319L16.5931 15.9925C18.2732 14.3125 18.1454 11.4773 16.0493 10.3075L15.3183 11.6173ZM11.7026 11.4156C12.4159 10.7023 13.432 10.5646 14.1554 10.9683L14.8864 9.65848C13.5109 8.89082 11.7735 9.22332 10.6419 10.3549L11.7026 11.4156ZM7.6925 1.95067C6.52269 -0.14545 3.68754 -0.273167 2.00748 1.4069L3.06814 2.46756C4.17397 1.36173 5.78366 1.60832 6.38268 2.68167L7.6925 1.95067ZM7.64504 7.35813C8.77667 6.22649 9.10919 4.48915 8.34152 3.1136L7.03169 3.8446C7.43542 4.56801 7.2977 5.58415 6.58438 6.29747L7.64504 7.35813ZM13.0385 16.244C12.292 16.2723 11.316 16.2082 10.2067 15.8901L9.79328 17.332C11.0767 17.7 12.2138 17.7763 13.0953 17.7429L13.0385 16.244ZM7.40654 14.6025C6.68811 14.1391 5.94579 13.5497 5.19803 12.802L4.13737 13.8626C4.95803 14.6833 5.78296 15.3402 6.59346 15.863L7.40654 14.6025ZM7.64506 7.35811L7.64504 7.35813L6.58438 6.29747L6.58435 6.2975L7.64506 7.35811ZM11.7023 11.4158L11.7026 11.4156L10.6419 10.3549L10.6421 10.3548L11.7023 11.4158Z" fill="#1C274C"/>
</svg>
