<svg width="30" height="30" viewBox="0 0 30 30" fill="none" xmlns="http://www.w3.org/2000/svg">
<path d="M22.7184 15.0783L22.0944 15.4943H22.0944L22.7184 15.0783ZM6.13214 16.8012L5.5081 16.3851H5.5081L6.13214 16.8012ZM7.28074 15.0783L6.6567 14.6622H6.6567L7.28074 15.0783ZM22.2905 21.0116L22.0932 20.288L22.2905 21.0116ZM7.70864 21.0116L7.90598 20.288H7.90598L7.70864 21.0116ZM11.6777 4.99622C11.3035 5.17396 11.1443 5.62135 11.3221 5.99549C11.4998 6.36963 11.9472 6.52884 12.3213 6.3511L11.6777 4.99622ZM9.35068 9.32176C9.52842 8.94762 9.3692 8.50023 8.99506 8.32249C8.62092 8.14475 8.17354 8.30397 7.9958 8.67811L9.35068 9.32176ZM21.2496 12V12.7041H22.7496V12H21.2496ZM22.0944 15.4943L23.243 17.2172L24.4911 16.3851L23.3424 14.6622L22.0944 15.4943ZM6.75618 17.2172L7.90478 15.4943L6.6567 14.6622L5.5081 16.3851L6.75618 17.2172ZM8.74958 12.7041V12H7.24958V12.7041H8.74958ZM22.0932 20.288C17.4489 21.5546 12.5502 21.5546 7.90598 20.288L7.5113 21.7351C12.414 23.0722 17.5852 23.0722 22.4879 21.7351L22.0932 20.288ZM7.90478 15.4943C8.45563 14.668 8.74958 13.6972 8.74958 12.7041H7.24958C7.24958 13.401 7.04329 14.0824 6.6567 14.6622L7.90478 15.4943ZM21.2496 12.7041C21.2496 13.6972 21.5435 14.668 22.0944 15.4943L23.3424 14.6622C22.9559 14.0824 22.7496 13.401 22.7496 12.7041H21.2496ZM5.5081 16.3851C4.175 18.3848 5.19271 21.1028 7.5113 21.7351L7.90598 20.288C6.57515 19.925 5.991 18.3649 6.75618 17.2172L5.5081 16.3851ZM23.243 17.2172C24.0082 18.3649 23.424 19.925 22.0932 20.288L22.4879 21.7351C24.8064 21.1028 25.8241 18.3848 24.4911 16.3851L23.243 17.2172ZM14.9996 5.75C18.4514 5.75 21.2496 8.54822 21.2496 12H22.7496C22.7496 7.71979 19.2798 4.25 14.9996 4.25V5.75ZM14.9996 4.25C13.8123 4.25 12.6854 4.5175 11.6777 4.99622L12.3213 6.3511C13.1322 5.96591 14.0396 5.75 14.9996 5.75V4.25ZM7.9958 8.67811C7.51707 9.68581 7.24958 10.8127 7.24958 12H8.74958C8.74958 11.04 8.96548 10.1326 9.35068 9.32176L7.9958 8.67811Z" fill="#1C274C"/>
<path d="M10.5 22C11.155 23.7478 12.9225 25 15 25C15.2445 25 15.4847 24.9827 15.7192 24.9492M19.5 22C19.2329 22.7126 18.781 23.3428 18.1985 23.8393" stroke="#1C274C" stroke-width="1.5" stroke-linecap="round"/>
</svg>
