<svg width="30" height="30" viewBox="0 0 30 30" fill="none" xmlns="http://www.w3.org/2000/svg">
<path d="M20.5777 7.43152L20.9262 6.76741L20.5777 7.43152ZM18.5777 6.38197L18.2292 7.04608V7.04608L18.5777 6.38197ZM11.4223 6.38197L11.7708 7.04608L11.4223 6.38197ZM9.42229 7.43152L9.07378 6.76741L9.42229 7.43152ZM20.5777 22.5685L20.9262 23.2326L20.5777 22.5685ZM18.5777 23.618L18.2292 22.9539L18.5777 23.618ZM11.4223 23.618L11.7708 22.9539H11.7708L11.4223 23.618ZM9.42229 22.5685L9.07378 23.2326H9.07378L9.42229 22.5685ZM5.5974 19.8603L4.95112 20.2408L4.95112 20.2408L5.5974 19.8603ZM24.4026 19.8603L25.0489 20.2408V20.2408L24.4026 19.8603ZM5.5974 10.1397L6.24367 10.5203H6.24367L5.5974 10.1397ZM24.4026 10.1397L23.7563 10.5203L24.4026 10.1397ZM24.2347 13.0212C24.2464 13.4352 24.5915 13.7614 25.0055 13.7497C25.4196 13.738 25.7458 13.3929 25.7341 12.9788L24.2347 13.0212ZM25.7341 17.0212C25.7458 16.6071 25.4196 16.262 25.0055 16.2503C24.5915 16.2386 24.2464 16.5648 24.2347 16.9788L25.7341 17.0212ZM20.9262 6.76741L18.9262 5.71786L18.2292 7.04608L20.2292 8.09563L20.9262 6.76741ZM11.0738 5.71786L9.07378 6.76741L9.7708 8.09563L11.7708 7.04608L11.0738 5.71786ZM20.2292 21.9044L18.2292 22.9539L18.9262 24.2821L20.9262 23.2326L20.2292 21.9044ZM11.7708 22.9539L9.7708 21.9044L9.07378 23.2326L11.0738 24.2821L11.7708 22.9539ZM4.25 14.9415V15.0585H5.75V14.9415H4.25ZM9.7708 21.9044C8.68111 21.3325 7.91553 20.9297 7.34352 20.5477C6.78727 20.1762 6.46587 19.857 6.24367 19.4797L4.95112 20.2408C5.32632 20.878 5.84154 21.3484 6.51047 21.7951C7.16364 22.2313 8.01181 22.6753 9.07378 23.2326L9.7708 21.9044ZM4.25 15.0585C4.25 16.3062 4.24916 17.296 4.32829 18.0993C4.40896 18.9182 4.57718 19.6058 4.95112 20.2408L6.24367 19.4797C6.02022 19.1002 5.88974 18.6494 5.82106 17.9522C5.75084 17.2394 5.75 16.3356 5.75 15.0585H4.25ZM18.2292 22.9539C17.3395 23.4208 16.716 23.7472 16.198 23.9614C15.6938 24.17 15.3395 24.25 15 24.25V25.75C15.6047 25.75 16.1616 25.5997 16.7712 25.3476C17.3671 25.1012 18.0603 24.7366 18.9262 24.2821L18.2292 22.9539ZM11.0738 24.2821C11.9397 24.7366 12.6329 25.1012 13.2288 25.3476C13.8384 25.5997 14.3953 25.75 15 25.75V24.25C14.6605 24.25 14.3062 24.17 13.802 23.9614C13.284 23.7472 12.6605 23.4208 11.7708 22.9539L11.0738 24.2821ZM20.9262 23.2326C21.9882 22.6753 22.8364 22.2313 23.4895 21.7951C24.1585 21.3484 24.6737 20.878 25.0489 20.2408L23.7563 19.4797C23.5341 19.857 23.2127 20.1762 22.6565 20.5477C22.0845 20.9297 21.3189 21.3325 20.2292 21.9044L20.9262 23.2326ZM18.9262 5.71786C18.0603 5.26345 17.3671 4.89884 16.7712 4.65242C16.1616 4.40029 15.6047 4.25 15 4.25V5.75C15.3395 5.75 15.6938 5.83004 16.198 6.03856C16.716 6.2528 17.3395 6.57917 18.2292 7.04608L18.9262 5.71786ZM11.7708 7.04608C12.6605 6.57917 13.284 6.2528 13.802 6.03856C14.3062 5.83004 14.6605 5.75 15 5.75V4.25C14.3953 4.25 13.8384 4.40029 13.2288 4.65242C12.6329 4.89884 11.9397 5.26345 11.0738 5.71786L11.7708 7.04608ZM9.07378 6.76741C8.01181 7.32471 7.16364 7.76872 6.51047 8.20491C5.84154 8.65164 5.32632 9.12201 4.95112 9.75918L6.24367 10.5203C6.46587 10.143 6.78727 9.8238 7.34352 9.45232C7.91553 9.07032 8.68111 8.66747 9.7708 8.09563L9.07378 6.76741ZM5.75 14.9415C5.75 13.6644 5.75084 12.7606 5.82106 12.0478C5.88974 11.3506 6.02022 10.8998 6.24367 10.5203L4.95112 9.75918C4.57718 10.3942 4.40896 11.0818 4.32829 11.9007C4.24916 12.704 4.25 13.6938 4.25 14.9415H5.75ZM20.2292 8.09563C21.3189 8.66748 22.0845 9.07032 22.6565 9.45232C23.2127 9.8238 23.5341 10.143 23.7563 10.5203L25.0489 9.75918C24.6737 9.12201 24.1585 8.65164 23.4895 8.20491C22.8364 7.76872 21.9882 7.32471 20.9262 6.76741L20.2292 8.09563ZM25.7341 12.9788C25.6966 11.652 25.5725 10.6484 25.0489 9.75918L23.7563 10.5203C24.0728 11.0577 24.1981 11.7258 24.2347 13.0212L25.7341 12.9788ZM24.2347 16.9788C24.1981 18.2742 24.0728 18.9423 23.7563 19.4797L25.0489 20.2408C25.5725 19.3516 25.6966 18.348 25.7341 17.0212L24.2347 16.9788Z" fill="#1C274C"/>
<path d="M24.3354 11.1708C24.7059 10.9856 24.8561 10.5351 24.6708 10.1646C24.4856 9.79411 24.0351 9.64394 23.6646 9.82918L24.3354 11.1708ZM6.33541 9.82918C5.96493 9.64394 5.51442 9.79411 5.32918 10.1646C5.14394 10.5351 5.29411 10.9856 5.66459 11.1708L6.33541 9.82918ZM14.25 24.5C14.25 24.9142 14.5858 25.25 15 25.25C15.4142 25.25 15.75 24.9142 15.75 24.5H14.25ZM23.6646 9.82918L14.6646 14.3292L15.3354 15.6708L24.3354 11.1708L23.6646 9.82918ZM15.3354 14.3292L6.33541 9.82918L5.66459 11.1708L14.6646 15.6708L15.3354 14.3292ZM14.25 15V24.5H15.75V15H14.25Z" fill="#1C274C"/>
</svg>
