<svg width="30" height="30" viewBox="0 0 30 30" fill="none" xmlns="http://www.w3.org/2000/svg">
<path d="M15 18.1082V23.1498C15 24.2635 14.0955 25.1875 13.0128 24.9673C8.44193 24.0381 5 19.9659 5 15.0832C5 13.2294 5.49614 11.4925 6.36182 10M19.3641 24.1581C22.7003 22.5239 25 19.0743 25 15.0832C25 9.51441 20.5228 5 15 5C13.1786 5 11.4709 5.49102 10 6.34895" stroke="#1C274C" stroke-width="1.5" stroke-linecap="round" stroke-linejoin="round"/>
<path d="M12.8 14.75H17.2V13.25H12.8V14.75ZM17.25 14.8V15H18.75V14.8H17.25ZM12.75 15V14.8H11.25V15H12.75ZM15 17.25C13.7574 17.25 12.75 16.2426 12.75 15H11.25C11.25 17.0711 12.9289 18.75 15 18.75V17.25ZM17.25 15C17.25 16.2426 16.2426 17.25 15 17.25V18.75C17.0711 18.75 18.75 17.0711 18.75 15H17.25ZM17.2 14.75C17.2276 14.75 17.25 14.7724 17.25 14.8H18.75C18.75 13.944 18.056 13.25 17.2 13.25V14.75ZM12.8 13.25C11.944 13.25 11.25 13.944 11.25 14.8H12.75C12.75 14.7724 12.7724 14.75 12.8 14.75V13.25Z" fill="#1C274C"/>
<path d="M16.5 14V12" stroke="#1C274C" stroke-width="1.5" stroke-linecap="round"/>
<path d="M13.5 14V12" stroke="#1C274C" stroke-width="1.5" stroke-linecap="round"/>
</svg>
