<svg width="30" height="30" viewBox="0 0 30 30" fill="none" xmlns="http://www.w3.org/2000/svg">
<path d="M20 24V19M10 24V19" stroke="#1C274C" stroke-width="1.5" stroke-linecap="round"/>
<path d="M21.4874 15.5858L20.923 16.0797L21.4874 15.5858ZM8.51257 15.5858L9.07701 16.0797L8.51257 15.5858ZM8.04435 17.0008L7.2971 16.9366L8.04435 17.0008ZM21.9557 17.0008L22.7029 16.9366L21.9557 17.0008ZM15 19.75C15.4142 19.75 15.75 19.4142 15.75 19C15.75 18.5858 15.4142 18.25 15 18.25V19.75ZM19 18.25C18.5858 18.25 18.25 18.5858 18.25 19C18.25 19.4142 18.5858 19.75 19 19.75V18.25ZM11.5 15.75H18.5V14.25H11.5V15.75ZM18.5 15.75C19.3491 15.75 19.8999 15.7521 20.3063 15.8145C20.6798 15.8719 20.8232 15.9656 20.923 16.0797L22.0519 15.0919C21.6391 14.6202 21.1137 14.421 20.5341 14.3319C19.9875 14.2479 19.3008 14.25 18.5 14.25V15.75ZM22.7029 16.9366C22.6427 16.2365 22.4974 15.6011 22.0519 15.0919L20.923 16.0797C21.0492 16.2239 21.1568 16.4641 21.2084 17.065L22.7029 16.9366ZM11.5 14.25C10.6992 14.25 10.0125 14.2479 9.46588 14.3319C8.88629 14.421 8.36091 14.6202 7.94814 15.0919L9.07701 16.0797C9.1768 15.9656 9.32018 15.8719 9.69369 15.8145C10.1002 15.7521 10.6509 15.75 11.5 15.75V14.25ZM8.79159 17.065C8.84325 16.4641 8.9508 16.2239 9.07701 16.0797L7.94814 15.0919C7.50258 15.6011 7.35727 16.2365 7.2971 16.9366L8.79159 17.065ZM10 18.25C9.48491 18.25 9.17889 18.2482 8.96085 18.2171C8.86133 18.2028 8.81285 18.1863 8.79196 18.1771C8.78712 18.1749 8.78399 18.1733 8.78222 18.1723C8.78047 18.1713 8.77969 18.1707 8.77957 18.1707C8.77948 18.1706 8.77947 18.1706 8.7795 18.1706C8.77953 18.1706 8.77954 18.1707 8.77952 18.1706C8.7795 18.1706 8.77937 18.1705 8.77914 18.1703C8.77891 18.17 8.77852 18.1696 8.77796 18.169L7.67281 19.1833C7.98392 19.5223 8.37457 19.6485 8.74874 19.702C9.09747 19.7518 9.53016 19.75 10 19.75V18.25ZM7.2971 16.9366C7.26042 17.3633 7.22352 17.7685 7.24605 18.105C7.2709 18.4762 7.3716 18.855 7.67281 19.1833L8.77796 18.169C8.77176 18.1623 8.76968 18.1592 8.76585 18.1487C8.75994 18.1324 8.7485 18.0915 8.7427 18.0048C8.72964 17.8098 8.75082 17.5393 8.79159 17.065L7.2971 16.9366ZM20 19.75C20.4699 19.75 20.9025 19.7518 21.2513 19.702C21.6255 19.6485 22.0161 19.5223 22.3272 19.1833L21.2221 18.169C21.2215 18.1696 21.2211 18.17 21.2209 18.1703C21.2206 18.1705 21.2205 18.1706 21.2205 18.1706C21.2205 18.1707 21.2205 18.1706 21.2205 18.1706C21.2206 18.1706 21.2205 18.1706 21.2205 18.1707C21.2203 18.1707 21.2196 18.1713 21.2178 18.1723C21.216 18.1733 21.2129 18.1749 21.2081 18.1771C21.1872 18.1863 21.1387 18.2028 21.0392 18.2171C20.8211 18.2482 20.5151 18.25 20 18.25V19.75ZM21.2084 17.065C21.2492 17.5393 21.2704 17.8098 21.2573 18.0048C21.2515 18.0915 21.2401 18.1324 21.2342 18.1487C21.2303 18.1592 21.2283 18.1623 21.2221 18.169L22.3272 19.1833C22.6284 18.855 22.7291 18.4762 22.754 18.105C22.7765 17.7685 22.7396 17.3633 22.7029 16.9366L21.2084 17.065ZM15 18.25H10V19.75H15V18.25ZM20 18.25H19V19.75H20V18.25Z" fill="#1C274C"/>
<path d="M10 11C10 9.13077 10 8.19615 10.4019 7.5C10.6652 7.04394 11.0439 6.66523 11.5 6.40192C12.1962 6 13.1308 6 15 6C16.8692 6 17.8038 6 18.5 6.40192C18.9561 6.66523 19.3348 7.04394 19.5981 7.5C20 8.19615 20 9.13077 20 11V15H10V11Z" stroke="#1C274C" stroke-width="1.5"/>
</svg>
