<svg width="30" height="30" viewBox="0 0 30 30" fill="none" xmlns="http://www.w3.org/2000/svg">
<path d="M9.5431 18.2828C9.25744 17.9828 8.78271 17.9712 8.48276 18.2569C8.18281 18.5426 8.17123 19.0173 8.4569 19.3172L9.5431 18.2828ZM10.1429 20L9.59975 20.5172C9.74131 20.6659 9.9376 20.75 10.1429 20.75C10.3481 20.75 10.5444 20.6659 10.686 20.5172L10.1429 20ZM13.5431 17.5172C13.8288 17.2173 13.8172 16.7426 13.5172 16.4569C13.2173 16.1712 12.7426 16.1828 12.4569 16.4828L13.5431 17.5172ZM8.4569 19.3172L9.59975 20.5172L10.686 19.4828L9.5431 18.2828L8.4569 19.3172ZM10.686 20.5172L13.5431 17.5172L12.4569 16.4828L9.59975 19.4828L10.686 20.5172Z" fill="#1C274C"/>
<path d="M9.5431 11.2828C9.25744 10.9828 8.78271 10.9712 8.48276 11.2569C8.18281 11.5426 8.17123 12.0173 8.4569 12.3172L9.5431 11.2828ZM10.1429 13L9.59975 13.5172C9.74131 13.6659 9.9376 13.75 10.1429 13.75C10.3481 13.75 10.5444 13.6659 10.686 13.5172L10.1429 13ZM13.5431 10.5172C13.8288 10.2173 13.8172 9.74256 13.5172 9.4569C13.2173 9.17123 12.7426 9.18281 12.4569 9.48276L13.5431 10.5172ZM8.4569 12.3172L9.59975 13.5172L10.686 12.4828L9.5431 11.2828L8.4569 12.3172ZM10.686 13.5172L13.5431 10.5172L12.4569 9.48276L9.59975 12.4828L10.686 13.5172Z" fill="#1C274C"/>
<path d="M16 12L21 12" stroke="#1C274C" stroke-width="1.5" stroke-linecap="round"/>
<path d="M16 19H21" stroke="#1C274C" stroke-width="1.5" stroke-linecap="round"/>
<path d="M25 15C25 19.714 25 22.0711 23.5355 23.5355C22.0711 25 19.714 25 15 25C10.286 25 7.92893 25 6.46447 23.5355C5 22.0711 5 19.714 5 15C5 10.286 5 7.92893 6.46447 6.46447C7.92893 5 10.286 5 15 5C19.714 5 22.0711 5 23.5355 6.46447C24.5093 7.43821 24.8356 8.80655 24.9449 11" stroke="#1C274C" stroke-width="1.5" stroke-linecap="round"/>
</svg>
