<svg width="30" height="30" viewBox="0 0 30 30" fill="none" xmlns="http://www.w3.org/2000/svg">
<path d="M10.565 15.4068C10.2926 15.0947 9.81879 15.0626 9.50676 15.335C9.19472 15.6074 9.1626 16.0812 9.43501 16.3932L10.565 15.4068ZM13.1429 19.5L12.5779 19.9932C12.7203 20.1564 12.9263 20.25 13.1429 20.25C13.3594 20.25 13.5654 20.1564 13.7078 19.9932L13.1429 19.5ZM21.565 10.9932C21.8374 10.6812 21.8053 10.2074 21.4932 9.93501C21.1812 9.6626 20.7074 9.69472 20.435 10.0068L21.565 10.9932ZM9.43501 16.3932L12.5779 19.9932L13.7078 19.0068L10.565 15.4068L9.43501 16.3932ZM13.7078 19.9932L21.565 10.9932L20.435 10.0068L12.5779 19.0068L13.7078 19.9932Z" fill="white"/>
</svg>
