<svg width="30" height="30" viewBox="0 0 30 30" fill="none" xmlns="http://www.w3.org/2000/svg">
<path d="M7.5 15L6.96967 14.4697C6.67678 14.7626 6.67678 15.2374 6.96967 15.5303L7.5 15ZM11.9697 20.5303C12.2626 20.8232 12.7374 20.8232 13.0303 20.5303C13.3232 20.2374 13.3232 19.7626 13.0303 19.4697L11.9697 20.5303ZM13.0303 10.5303C13.3232 10.2374 13.3232 9.76256 13.0303 9.46967C12.7374 9.17678 12.2626 9.17678 11.9697 9.46967L13.0303 10.5303ZM17.5 14.25C17.0858 14.25 16.75 14.5858 16.75 15C16.75 15.4142 17.0858 15.75 17.5 15.75V14.25ZM23.25 10C23.25 9.58579 22.9142 9.25 22.5 9.25C22.0858 9.25 21.75 9.58579 21.75 10L23.25 10ZM14 15.75C14.4142 15.75 14.75 15.4142 14.75 15C14.75 14.5858 14.4142 14.25 14 14.25V15.75ZM6.96967 15.5303L11.9697 20.5303L13.0303 19.4697L8.03033 14.4697L6.96967 15.5303ZM8.03033 15.5303L13.0303 10.5303L11.9697 9.46967L6.96967 14.4697L8.03033 15.5303ZM17.5 15.75C18.4534 15.75 19.8667 15.4702 21.0632 14.6087C22.298 13.7196 23.25 12.2444 23.25 10L21.75 10C21.75 11.7556 21.0353 12.7804 20.1868 13.3913C19.3 14.0298 18.2133 14.25 17.5 14.25V15.75ZM14 14.25L7.5 14.25L7.5 15.75L14 15.75V14.25Z" fill="#1C274C"/>
</svg>
