<svg width="30" height="30" viewBox="0 0 30 30" fill="none" xmlns="http://www.w3.org/2000/svg">
<path d="M5.71598 19.1258C5.89681 20.6729 6.72352 22.0714 7.99182 22.9757C8.9263 23.6419 10.0454 24 11.193 24H14.8069C15.9546 24 17.0736 23.6419 18.0081 22.9757C19.2764 22.0714 20.1031 20.6729 20.284 19.1258L20.6846 15.6978C20.7346 15.2706 20.7595 15.057 20.749 14.8809C20.694 13.9577 20.0132 13.1928 19.1027 13.0309C18.929 13 18.7139 13 18.2838 13H7.71612C7.286 13 7.07094 13 6.89725 13.0309C5.98677 13.1928 5.30599 13.9577 5.2509 14.8809C5.2404 15.057 5.26536 15.2706 5.3153 15.6978" stroke="#1C274C" stroke-width="1.5" stroke-linecap="round"/>
<path d="M20 20H22C23.6569 20 25 18.6569 25 17C25 15.3431 23.6569 14 22 14H20.5" stroke="#1C274C" stroke-width="1.5"/>
<path d="M13.0002 5C12.4479 5.55228 12.4479 6.44772 13.0002 7C13.5524 7.55228 13.5524 8.44772 13.0002 9" stroke="#1C274C" stroke-width="1.5" stroke-linecap="round" stroke-linejoin="round"/>
<path d="M7.99994 10.5L8.11605 10.3839C8.62322 9.87671 8.68028 9.0738 8.24994 8.5C7.81959 7.9262 7.87665 7.12329 8.38382 6.61612L8.49994 6.5" stroke="#1C274C" stroke-width="1.5" stroke-linecap="round" stroke-linejoin="round"/>
<path d="M17.4999 10.5L17.6161 10.3839C18.1232 9.87671 18.1803 9.0738 17.7499 8.5C17.3196 7.9262 17.3767 7.12329 17.8838 6.61612L17.9999 6.5" stroke="#1C274C" stroke-width="1.5" stroke-linecap="round" stroke-linejoin="round"/>
</svg>
