<svg width="30" height="30" viewBox="0 0 30 30" fill="none" xmlns="http://www.w3.org/2000/svg">
<path d="M16.3057 21.2975L11.2372 22.987C8.47183 23.9088 7.08912 24.3697 6.35924 23.6398C5.62936 22.9099 6.09026 21.5272 7.01207 18.7618L8.70156 13.6933C9.46758 11.3952 9.85059 10.2462 10.7568 10.0323C11.6631 9.81835 12.5195 10.6748 14.2324 12.3876L17.6114 15.7666C19.3242 17.4795 20.1807 18.3359 19.9667 19.2422" stroke="#1C274C" stroke-width="1.5" stroke-linecap="round"/>
<path d="M15.2351 21.3461C15.2351 21.3461 14.477 19.0649 14.477 17.5552C14.477 16.0454 15.2351 13.7643 15.2351 13.7643M11.0652 22.4833C11.0652 22.4833 10.4248 19.7314 10.307 17.9343C10.1123 14.965 11.0652 10.3525 11.0652 10.3525" stroke="#1C274C" stroke-width="1.5" stroke-linecap="round"/>
<path d="M17.5093 13.0061L17.6533 12.2861C17.7986 11.5592 18.3224 10.966 19.0256 10.7316C19.7289 10.4971 20.2526 9.90387 20.398 9.17697L20.542 8.45703" stroke="#1C274C" stroke-width="1.5" stroke-linecap="round"/>
<path d="M20.5693 16.2533L20.7822 16.3762C21.4393 16.7556 22.2655 16.6719 22.8332 16.1685C23.3473 15.7126 24.0794 15.597 24.709 15.8723L25.0005 15.9997" stroke="#1C274C" stroke-width="1.5" stroke-linecap="round"/>
<path d="M12.7951 5.77903C12.4576 6.33109 12.5422 7.04247 12.9998 7.5L13.0976 7.59788C13.4908 7.99104 13.6358 8.56862 13.4749 9.10085" stroke="#1C274C" stroke-width="1.5" stroke-linecap="round"/>
<path d="M9.92761 6.94079C10.1371 6.73132 10.4767 6.73132 10.6862 6.94079C10.8956 7.15026 10.8956 7.48988 10.6862 7.69935C10.4767 7.90882 10.1371 7.90882 9.92761 7.69935C9.71814 7.48988 9.71814 7.15026 9.92761 6.94079Z" fill="#1C274C"/>
<path d="M15.1571 10.1571C15.3666 9.94763 15.7062 9.94763 15.9157 10.1571C16.1251 10.3666 16.1251 10.7062 15.9157 10.9157C15.7062 11.1251 15.3666 11.1251 15.1571 10.9157C14.9476 10.7062 14.9476 10.3666 15.1571 10.1571Z" fill="#1C274C"/>
<path d="M20.1571 13.1571C20.3666 12.9476 20.7062 12.9476 20.9157 13.1571C21.1251 13.3666 21.1251 13.7062 20.9157 13.9157C20.7062 14.1251 20.3666 14.1251 20.1571 13.9157C19.9476 13.7062 19.9476 13.3666 20.1571 13.1571Z" fill="#1C274C"/>
<path d="M22.0582 18.3134C22.2677 18.1039 22.6073 18.1039 22.8168 18.3134C23.0262 18.5228 23.0262 18.8624 22.8168 19.0719C22.6073 19.2814 22.2677 19.2814 22.0582 19.0719C21.8488 18.8624 21.8488 18.5228 22.0582 18.3134Z" fill="#1C274C"/>
<path d="M22.3615 10.7144C21.6912 11.3846 22.1722 13.328 22.1722 13.328C22.1722 13.328 24.1156 13.809 24.7859 13.1387C25.4958 12.4288 25.0941 11.4971 24.0002 11.5C24.0032 10.4062 23.0714 10.0045 22.3615 10.7144Z" stroke="#1C274C" stroke-linejoin="round"/>
<path d="M18.1884 6.41748L18.1608 6.51459C18.1305 6.62126 18.1153 6.67459 18.1225 6.72695C18.1296 6.77931 18.1583 6.82476 18.2157 6.91567L18.2679 6.99844C18.4698 7.31836 18.5707 7.47831 18.5019 7.60915C18.4332 7.73998 18.2402 7.75504 17.8544 7.78517L17.7546 7.79296C17.6449 7.80152 17.5901 7.8058 17.5422 7.83099C17.4943 7.85618 17.4587 7.89943 17.3875 7.98592L17.3226 8.06467C17.072 8.36905 16.9467 8.52124 16.8038 8.50167C16.6609 8.4821 16.595 8.30373 16.4632 7.94699L16.4291 7.85469C16.3916 7.75332 16.3729 7.70263 16.3361 7.66584C16.2993 7.62905 16.2486 7.61033 16.1472 7.57287L16.0549 7.53878C15.6982 7.40698 15.5198 7.34108 15.5003 7.19815C15.4807 7.05522 15.6329 6.92992 15.9373 6.67932L16.016 6.61448C16.1025 6.54327 16.1458 6.50766 16.1709 6.45974C16.1961 6.41181 16.2004 6.35699 16.209 6.24735L16.2168 6.14753C16.2469 5.76169 16.262 5.56877 16.3928 5.50001C16.5236 5.43124 16.6836 5.53217 17.0035 5.73403L17.0863 5.78626C17.1772 5.84362 17.2226 5.8723 17.275 5.87947C17.3273 5.88664 17.3807 5.87148 17.4873 5.84117L17.5845 5.81358C17.9598 5.70692 18.1475 5.65359 18.2479 5.75402C18.3483 5.85445 18.295 6.04213 18.1884 6.41748Z" stroke="#1C274C"/>
</svg>
