<svg width="30" height="30" viewBox="0 0 30 30" fill="none" xmlns="http://www.w3.org/2000/svg">
<path d="M20.5303 10.5304C20.8232 10.2375 20.8232 9.7626 20.5303 9.46971C20.2374 9.17682 19.7625 9.17682 19.4696 9.46971L20.5303 10.5304ZM9.46967 19.4697C9.17678 19.7626 9.17678 20.2374 9.46967 20.5303C9.76256 20.8232 10.2374 20.8232 10.5303 20.5303L9.46967 19.4697ZM10.5303 9.46967C10.2374 9.17678 9.76252 9.17678 9.46963 9.46967C9.17673 9.76256 9.17673 10.2374 9.46963 10.5303L10.5303 9.46967ZM19.4696 20.5303C19.7625 20.8232 20.2374 20.8232 20.5302 20.5303C20.8231 20.2374 20.8231 19.7625 20.5302 19.4696L19.4696 20.5303ZM19.4696 9.46971L9.46967 19.4697L10.5303 20.5303L20.5303 10.5304L19.4696 9.46971ZM9.46963 10.5303L19.4696 20.5303L20.5302 19.4696L10.5303 9.46967L9.46963 10.5303Z" fill="#1C274C"/>
</svg>
