<svg width="30" height="30" viewBox="0 0 30 30" fill="none" xmlns="http://www.w3.org/2000/svg">
<path d="M25 13V12C25 9.17157 25 7.75736 24.1213 6.87868C23.2426 6 21.8284 6 19 6H11C8.17157 6 6.75736 6 5.87868 6.87868C5.57888 7.17848 5.38137 7.54062 5.25125 8M5 12V13C5 15.8284 5 17.2426 5.87868 18.1213C6.75736 19 8.17157 19 11 19H19C21.8284 19 23.2426 19 24.1213 18.1213C24.4211 17.8215 24.6186 17.4594 24.7487 17" stroke="#1C274C" stroke-width="1.5" stroke-linecap="round"/>
<path d="M15 22V19.5M15 22L21 24M15 22L9 24" stroke="#1C274C" stroke-width="1.5" stroke-linecap="round"/>
</svg>
