<svg width="30" height="30" viewBox="0 0 30 30" fill="none" xmlns="http://www.w3.org/2000/svg">
<path d="M16.2535 22.4243C15.9606 22.1314 15.4857 22.1314 15.1928 22.4243C14.8999 22.7172 14.8999 23.1921 15.1928 23.485L16.2535 22.4243ZM18.6157 25V24.25V25ZM7.04537 8.49167L7.5757 9.022H7.5757L7.04537 8.49167ZM6.51504 14.8072C6.80794 15.1001 7.28281 15.1001 7.5757 14.8072C7.8686 14.5143 7.8686 14.0394 7.5757 13.7465L6.51504 14.8072ZM14.2769 7.04537L14.8072 7.5757C14.9478 7.43505 15.0269 7.24428 15.0269 7.04537C15.0269 6.84646 14.9478 6.65569 14.8072 6.51504L14.2769 7.04537ZM8.49167 7.04537L7.96134 6.51504L7.96134 6.51504L8.49167 7.04537ZM22.9546 15.7231L23.485 15.1928C23.3443 15.0522 23.1535 14.9731 22.9546 14.9731C22.7557 14.9731 22.565 15.0522 22.4243 15.1928L22.9546 15.7231ZM25 18.6157H25.75H25ZM11.336 8.92553C11.0431 9.21843 11.0431 9.6933 11.336 9.98619C11.6289 10.2791 12.1038 10.2791 12.3967 9.98619L11.336 8.92553ZM20.0138 17.6033C19.7209 17.8962 19.7209 18.3711 20.0138 18.664C20.3067 18.9569 20.7816 18.9569 21.0745 18.664L20.0138 17.6033ZM21.4868 24.0343C21.7819 23.7435 21.7854 23.2687 21.4947 22.9736C21.204 22.6786 20.7291 22.675 20.4341 22.9657L21.4868 24.0343ZM22.9274 20.473C22.6363 20.7677 22.6393 21.2426 22.934 21.5336C23.2287 21.8247 23.7036 21.8217 23.9946 21.527L22.9274 20.473ZM7.96134 6.51504L6.51504 7.96134L7.5757 9.022L9.022 7.5757L7.96134 6.51504ZM15.1928 23.485C15.8596 24.1518 16.4119 24.7063 16.9081 25.0849C17.4217 25.4767 17.9622 25.75 18.6157 25.75V24.25C18.422 24.25 18.1981 24.1824 17.818 23.8924C17.4206 23.5892 16.9503 23.1211 16.2535 22.4243L15.1928 23.485ZM6.51504 7.96134C5.84824 8.62814 5.29367 9.18046 4.91508 9.67666C4.52328 10.1902 4.25 10.7307 4.25 11.3843H5.75C5.75 11.1906 5.81761 10.9666 6.10761 10.5865C6.41081 10.1891 6.87892 9.71878 7.5757 9.022L6.51504 7.96134ZM7.5757 13.7465C6.87892 13.0497 6.41081 12.5794 6.10761 12.182C5.81761 11.8019 5.75 11.578 5.75 11.3843H4.25C4.25 12.0378 4.52328 12.5783 4.91508 13.0919C5.29367 13.5881 5.84824 14.1404 6.51504 14.8072L7.5757 13.7465ZM14.8072 6.51504C14.1404 5.84824 13.5881 5.29367 13.0919 4.91508C12.5783 4.52328 12.0378 4.25 11.3843 4.25V5.75C11.578 5.75 11.8019 5.81761 12.182 6.10761C12.5794 6.41081 13.0497 6.87892 13.7465 7.5757L14.8072 6.51504ZM9.022 7.5757C9.71878 6.87892 10.1891 6.41081 10.5865 6.10761C10.9666 5.81762 11.1906 5.75 11.3843 5.75V4.25C10.7307 4.25 10.1902 4.52328 9.67666 4.91508C9.18046 5.29367 8.62814 5.84824 7.96134 6.51504L9.022 7.5757ZM22.4243 16.2535C23.1211 16.9503 23.5892 17.4206 23.8924 17.818C24.1824 18.1981 24.25 18.422 24.25 18.6157H25.75C25.75 17.9622 25.4767 17.4217 25.0849 16.9081C24.7063 16.4119 24.1518 15.8596 23.485 15.1928L22.4243 16.2535ZM13.7465 6.51504L11.336 8.92553L12.3967 9.98619L14.8072 7.5757L13.7465 6.51504ZM22.4243 15.1928L20.0138 17.6033L21.0745 18.664L23.485 16.2535L22.4243 15.1928ZM20.4341 22.9657C19.9239 23.4684 19.5635 23.7975 19.2586 24.0043C18.9715 24.199 18.784 24.25 18.6157 24.25V25.75C19.173 25.75 19.6504 25.551 20.1005 25.2457C20.5329 24.9525 20.982 24.5316 21.4868 24.0343L20.4341 22.9657ZM23.9946 21.527C24.504 21.0112 24.9345 20.5549 25.2339 20.1178C25.5457 19.6628 25.75 19.1805 25.75 18.6157H24.25C24.25 18.7859 24.1978 18.9762 23.9966 19.2699C23.783 19.5815 23.4439 19.9499 22.9274 20.473L23.9946 21.527Z" fill="white"/>
<path d="M17.3601 7.07866L18.2869 6.15178C19.8226 4.61607 22.3125 4.61607 23.8482 6.15178C25.3839 7.68748 25.3839 10.1774 23.8482 11.7131L22.9213 12.6399M17.3601 7.07866C17.3601 7.07866 17.4759 9.04828 19.2138 10.7862C20.9517 12.5241 22.9213 12.6399 22.9213 12.6399M17.3601 7.07866L15 9.43872M22.9213 12.6399L17.6607 17.9006L14.5613 21L14.4001 21.1612C13.8229 21.7383 13.5344 22.0269 13.2162 22.2751C12.8408 22.5679 12.4347 22.8189 12.005 23.0237C11.6407 23.1973 11.2535 23.3263 10.4792 23.5844L7.19792 24.6782M7.19792 24.6782L6.39584 24.9456C6.01478 25.0726 5.59466 24.9734 5.31063 24.6894C5.0266 24.4053 4.92743 23.9852 5.05445 23.6042L5.32181 22.8021M7.19792 24.6782L5.32181 22.8021M5.32181 22.8021L6.41556 19.5208C6.67368 18.7465 6.80273 18.3593 6.97634 17.995C7.18114 17.5653 7.43213 17.1592 7.7249 16.7838C7.97308 16.4656 8.26166 16.1771 8.83882 15.5999L11.5 12.9387" stroke="white" stroke-width="1.5" stroke-linecap="round"/>
</svg>
