<svg width="30" height="30" viewBox="0 0 30 30" fill="none" xmlns="http://www.w3.org/2000/svg">
<path d="M11.5 14V17M10 15.5L13 15.5" stroke="#1C274C" stroke-width="1.5" stroke-linecap="round"/>
<path d="M5.62271 18.1185L5.08029 20.3766C4.69894 21.9643 5.71265 23.552 7.34414 23.9225C8.71996 24.2349 10.1352 23.5814 10.7566 22.3466L10.8846 22.0923C11.4552 20.9586 12.6392 20.2399 13.9364 20.2399H16.0636C17.3608 20.2399 18.5448 20.9586 19.1154 22.0923L19.2434 22.3466C19.8648 23.5814 21.28 24.2349 22.6559 23.9225C24.2873 23.552 25.3011 21.9643 24.9197 20.3766L23.8349 15.8603C23.2217 13.3074 22.915 12.0309 22.0453 11.1937C21.8251 10.9818 21.5819 10.794 21.3198 10.6337C20.2841 10 18.9371 10 16.2432 10H13.7568C11.0629 10 9.71588 10 8.68024 10.6337C8.41814 10.794 8.17486 10.9818 7.95474 11.1937C7.32815 11.7968 6.99384 12.6279 6.6266 14" stroke="#1C274C" stroke-width="1.5" stroke-linecap="round"/>
<path d="M15 10V9C15 8.44772 15.4477 8 16 8H17C17.5523 8 18 7.55228 18 7V6" stroke="#1C274C" stroke-width="1.5" stroke-linecap="round"/>
<path d="M19 14C19 14.5523 18.5523 15 18 15C17.4477 15 17 14.5523 17 14C17 13.4477 17.4477 13 18 13C18.5523 13 19 13.4477 19 14Z" fill="#1C274C"/>
<path d="M21 17C21 17.5523 20.5523 18 20 18C19.4477 18 19 17.5523 19 17C19 16.4477 19.4477 16 20 16C20.5523 16 21 16.4477 21 17Z" fill="#1C274C"/>
</svg>
