<svg width="30" height="30" viewBox="0 0 30 30" fill="none" xmlns="http://www.w3.org/2000/svg">
<path d="M8.875 15.5729C8.30847 14.2498 8 12.8411 8 11.5146C8 7.9167 11.134 5 15 5C18.866 5 22 7.9167 22 11.5146C22 15.0844 19.7658 19.2499 16.2801 20.7396C15.4675 21.0868 14.5325 21.0868 13.7199 20.7396C12.6066 20.2638 11.621 19.5151 10.7951 18.6" stroke="#1C274C" stroke-width="1.5" stroke-linecap="round"/>
<path d="M17 12C17 13.1046 16.1046 14 15 14C13.8954 14 13 13.1046 13 12C13 10.8954 13.8954 10 15 10C16.1046 10 17 10.8954 17 12Z" stroke="#1C274C" stroke-width="1.5"/>
<path d="M23.9605 18.5C24.6259 19.1025 25 19.7816 25 20.5C25 21.4251 24.3797 22.285 23.3161 23M6.03947 18.5C5.37412 19.1025 5 19.7816 5 20.5C5 22.9853 9.47715 25 15 25C16.6529 25 18.2122 24.8195 19.5858 24.5" stroke="#1C274C" stroke-width="1.5" stroke-linecap="round"/>
</svg>
