<svg width="30" height="30" viewBox="0 0 30 30" fill="none" xmlns="http://www.w3.org/2000/svg">
<path d="M11 19C11 21.8284 11 23.2426 11.8787 24.1213C12.52 24.7626 13.4466 24.9359 15 24.9827M11 11C11 8.17157 11 6.75736 11.8787 5.87868C12.7574 5 14.1716 5 17 5H18C20.8284 5 22.2426 5 23.1213 5.87868C24 6.75736 24 8.17157 24 11V13V17V19C24 21.8284 24 23.2426 23.1213 24.1213C22.3529 24.8897 21.175 24.9862 19 24.9983" stroke="#1C274C" stroke-width="1.5" stroke-linecap="round"/>
<path d="M6 12.5V17.5C6 19.857 6 21.0355 6.73223 21.7678C7.46447 22.5 8.64298 22.5 11 22.5M6.73223 8.23223C7.46447 7.5 8.64298 7.5 11 7.5" stroke="#1C274C" stroke-width="1.5" stroke-linecap="round"/>
<path d="M9 14.25C8.58579 14.25 8.25 14.5858 8.25 15C8.25 15.4142 8.58579 15.75 9 15.75L9 14.25ZM18 15L18.5303 15.5303C18.8232 15.2374 18.8232 14.7626 18.5303 14.4697L18 15ZM14.9697 16.9697C14.6768 17.2626 14.6768 17.7374 14.9697 18.0303C15.2626 18.3232 15.7374 18.3232 16.0303 18.0303L14.9697 16.9697ZM16.0303 11.9697C15.7374 11.6768 15.2626 11.6768 14.9697 11.9697C14.6768 12.2626 14.6768 12.7374 14.9697 13.0303L16.0303 11.9697ZM9 15.75L18 15.75L18 14.25L9 14.25L9 15.75ZM17.4697 14.4697L14.9697 16.9697L16.0303 18.0303L18.5303 15.5303L17.4697 14.4697ZM18.5303 14.4697L16.0303 11.9697L14.9697 13.0303L17.4697 15.5303L18.5303 14.4697Z" fill="#1C274C"/>
</svg>
