<svg width="30" height="30" viewBox="0 0 30 30" fill="none" xmlns="http://www.w3.org/2000/svg">
<path d="M18 14.25C18.4142 14.25 18.75 14.5858 18.75 15C18.75 15.4142 18.4142 15.75 18 15.75L18 14.25ZM9 15L8.46967 15.5303C8.17678 15.2374 8.17678 14.7626 8.46967 14.4697L9 15ZM11.5303 16.4697C11.8232 16.7626 11.8232 17.2374 11.5303 17.5303C11.2374 17.8232 10.7626 17.8232 10.4697 17.5303L11.5303 16.4697ZM10.4697 12.4697C10.7626 12.1768 11.2374 12.1768 11.5303 12.4697C11.8232 12.7626 11.8232 13.2374 11.5303 13.5303L10.4697 12.4697ZM18 15.75L9 15.75L9 14.25L18 14.25L18 15.75ZM9.53033 14.4697L11.5303 16.4697L10.4697 17.5303L8.46967 15.5303L9.53033 14.4697ZM8.46967 14.4697L10.4697 12.4697L11.5303 13.5303L9.53033 15.5303L8.46967 14.4697Z" fill="#1C274C"/>
<path d="M15.0002 24.9827C13.4468 24.9359 12.5202 24.7626 11.8789 24.1213C11.1105 23.3529 11.0141 22.175 11.002 20M19.0002 24.9983C21.1752 24.9862 22.3532 24.8897 23.1215 24.1213C24.0002 23.2426 24.0002 21.8284 24.0002 19V17V13V11C24.0002 8.17157 24.0002 6.75736 23.1215 5.87868C22.2429 5 20.8286 5 18.0002 5H17.0002C14.1718 5 12.7576 5 11.8789 5.87868C11.1105 6.64706 11.0141 7.82497 11.002 10" stroke="#1C274C" stroke-width="1.5" stroke-linecap="round"/>
<path d="M6 12.5V17.5C6 19.857 6 21.0355 6.73223 21.7678C7.46447 22.5 8.64298 22.5 11 22.5M6.73223 8.23223C7.46447 7.5 8.64298 7.5 11 7.5" stroke="#1C274C" stroke-width="1.5" stroke-linecap="round"/>
</svg>
