<svg width="30" height="30" viewBox="0 0 30 30" fill="none" xmlns="http://www.w3.org/2000/svg">
<path d="M13.8693 24.5102L14.5147 24.8922L13.8693 24.5102ZM14.1288 24.0719L13.4833 23.6899L14.1288 24.0719ZM11.8712 24.0719L12.5166 23.6899L12.5166 23.6899L11.8712 24.0719ZM12.1306 24.5102L11.4852 24.8922L12.1306 24.5102ZM4.25 15.8C4.25 16.2142 4.58579 16.55 5 16.55C5.41421 16.55 5.75 16.2142 5.75 15.8H4.25ZM5.99739 19.8438C5.83888 19.4611 5.40015 19.2794 5.01747 19.4379C4.63479 19.5964 4.45306 20.0351 4.61157 20.4178L5.99739 19.8438ZM9.28931 22.585L9.31328 21.8354L9.28931 22.585ZM7.46927 22.2956L7.18225 22.9885H7.18225L7.46927 22.2956ZM20.6955 20.1308L21.3884 20.4178L21.3884 20.4178L20.6955 20.1308ZM16.7107 22.585L16.6867 21.8354L16.7107 22.585ZM18.5307 22.2956L18.8177 22.9885L18.5307 22.2956ZM6.91001 9.58944L6.51813 8.94996V8.94996L6.91001 9.58944ZM5.58944 10.91L4.94996 10.5181H4.94996L5.58944 10.91ZM10.9164 22.8223L10.5345 23.4679H10.5345L10.9164 22.8223ZM17.8484 9.91393C18.2541 9.99765 18.6508 9.73665 18.7345 9.33099C18.8182 8.92532 18.5572 8.5286 18.1516 8.44489L17.8484 9.91393ZM21.5551 11.8484C21.4714 11.4428 21.0747 11.1818 20.669 11.2655C20.2633 11.3492 20.0024 11.7459 20.0861 12.1516L21.5551 11.8484ZM14.5147 24.8922L14.7742 24.4539L13.4833 23.6899L13.2239 24.1282L14.5147 24.8922ZM11.2258 24.4539L11.4852 24.8922L12.7761 24.1282L12.5166 23.6899L11.2258 24.4539ZM13.2239 24.1282C13.1785 24.2049 13.0992 24.25 13 24.25C12.9007 24.25 12.8215 24.2049 12.7761 24.1282L11.4852 24.8922C12.1622 26.0359 13.8378 26.0359 14.5147 24.8922L13.2239 24.1282ZM11.8 9.75H14.2V8.25H11.8V9.75ZM20.25 15.8V16.6H21.75V15.8H20.25ZM9.31328 21.8354C8.52102 21.81 8.09046 21.7411 7.75628 21.6027L7.18225 22.9885C7.77912 23.2357 8.43744 23.3081 9.26533 23.3346L9.31328 21.8354ZM4.61157 20.4178C5.09367 21.5817 6.01837 22.5064 7.18225 22.9885L7.75628 21.6027C6.95994 21.2728 6.32725 20.6401 5.99739 19.8438L4.61157 20.4178ZM20.25 16.6C20.25 17.5422 20.2496 18.2112 20.2137 18.7376C20.1782 19.2573 20.1107 19.5828 20.0026 19.8438L21.3884 20.4178C21.5848 19.9436 21.6695 19.4357 21.7102 18.8397C21.7504 18.2504 21.75 17.5217 21.75 16.6H20.25ZM16.7346 23.3346C17.5625 23.3081 18.2209 23.2357 18.8177 22.9885L18.2437 21.6027C17.9095 21.7411 17.479 21.81 16.6867 21.8354L16.7346 23.3346ZM20.0026 19.8438C19.6728 20.6401 19.0401 21.2728 18.2437 21.6027L18.8177 22.9885C19.9816 22.5064 20.9063 21.5817 21.3884 20.4178L20.0026 19.8438ZM11.8 8.25C10.5052 8.25 9.48135 8.24921 8.66269 8.32705C7.83287 8.40595 7.13672 8.57089 6.51813 8.94996L7.30188 10.2289C7.64517 10.0186 8.08465 9.88877 8.80467 9.82031C9.53585 9.75079 10.4761 9.75 11.8 9.75V8.25ZM5.75 15.8C5.75 14.4761 5.75079 13.5359 5.82031 12.8047C5.88877 12.0847 6.01855 11.6452 6.22892 11.3019L4.94996 10.5181C4.57089 11.1367 4.40595 11.8329 4.32705 12.6627C4.24921 13.4814 4.25 14.5052 4.25 15.8H5.75ZM6.51813 8.94996C5.87899 9.34163 5.34162 9.879 4.94996 10.5181L6.22892 11.3019C6.4969 10.8646 6.86458 10.4969 7.30188 10.2289L6.51813 8.94996ZM12.5166 23.6899C12.3158 23.3506 12.1397 23.0516 11.9689 22.8164C11.7892 22.569 11.5833 22.3454 11.2982 22.1768L10.5345 23.4679C10.5806 23.4951 10.6443 23.5451 10.7552 23.6979C10.8751 23.863 11.0108 24.0907 11.2258 24.4539L12.5166 23.6899ZM9.26533 23.3346C9.71078 23.3489 9.99552 23.3587 10.2118 23.3851C10.4163 23.41 10.4931 23.4433 10.5345 23.4679L11.2982 22.1768C11.0085 22.0055 10.7037 21.9339 10.3934 21.8961C10.095 21.8597 9.73177 21.8488 9.31328 21.8354L9.26533 23.3346ZM14.7742 24.4539C14.9891 24.0907 15.1249 23.863 15.2447 23.6979C15.3557 23.5451 15.4193 23.4951 15.4654 23.4679L14.7018 22.1768C14.4167 22.3454 14.2108 22.569 14.0311 22.8164C13.8603 23.0516 13.6841 23.3506 13.4833 23.6899L14.7742 24.4539ZM16.6867 21.8354C16.2682 21.8488 15.905 21.8597 15.6065 21.8961C15.2963 21.9339 14.9914 22.0055 14.7018 22.1768L15.4654 23.4679C15.5069 23.4433 15.5837 23.41 15.7881 23.3851C16.0044 23.3587 16.2892 23.3489 16.7346 23.3346L16.6867 21.8354ZM14.2 9.75C15.9978 9.75 17.0727 9.75386 17.8484 9.91393L18.1516 8.44489C17.1885 8.24614 15.9253 8.25 14.2 8.25V9.75ZM21.75 15.8C21.75 14.0747 21.7539 12.8115 21.5551 11.8484L20.0861 12.1516C20.2461 12.9273 20.25 14.0022 20.25 15.8H21.75Z" fill="#1C274C"/>
<path d="M10.0332 9C10.0848 8.00787 10.2165 7.33902 10.5525 6.79064C10.8618 6.28605 11.286 5.86181 11.7906 5.5526C12.6923 5 13.9199 5 16.3749 5H18.6249C20.153 5 21.2056 5 22 5.13325M21 17.7352C21.7477 17.7104 22.2527 17.6437 22.685 17.4646C23.6039 17.084 24.3339 16.354 24.7145 15.4351C24.9999 14.746 24.9999 13.8723 24.9999 12.125V11.375C24.9999 9.84695 24.9999 8.79442 24.8667 8" stroke="#1C274C" stroke-width="1.5" stroke-linecap="round"/>
<path d="M10.5 16C10.5 16.5523 10.0523 17 9.5 17C8.94772 17 8.5 16.5523 8.5 16C8.5 15.4477 8.94772 15 9.5 15C10.0523 15 10.5 15.4477 10.5 16Z" fill="#1C274C"/>
<path d="M14 16C14 16.5523 13.5523 17 13 17C12.4477 17 12 16.5523 12 16C12 15.4477 12.4477 15 13 15C13.5523 15 14 15.4477 14 16Z" fill="#1C274C"/>
<path d="M17.5 16C17.5 16.5523 17.0523 17 16.5 17C15.9477 17 15.5 16.5523 15.5 16C15.5 15.4477 15.9477 15 16.5 15C17.0523 15 17.5 15.4477 17.5 16Z" fill="#1C274C"/>
</svg>
