<svg width="30" height="30" viewBox="0 0 30 30" fill="none" xmlns="http://www.w3.org/2000/svg">
<path d="M9 18.5C9 17.9477 9.44772 17.5 10 17.5H20C20.5523 17.5 21 17.9477 21 18.5C21 19.6046 20.1046 20.5 19 20.5H11C9.89543 20.5 9 19.6046 9 18.5Z" stroke="#1C274C" stroke-width="1.5"/>
<path d="M18.7902 5.49567C18.0386 5 17.0257 5 14.9999 5C12.9741 5 11.9612 5 11.2097 5.49567C10.9712 5.65298 10.7563 5.84355 10.5717 6.06161C9.99006 6.74872 9.86937 7.75442 9.628 9.76581L9.53709 10.5234C9.2866 12.6109 9.16135 13.6546 9.75816 14.3273C10.355 15 11.4062 15 13.5086 15H16.4912C18.5936 15 19.6448 15 20.2416 14.3273C20.8385 13.6546 20.7132 12.6109 20.4627 10.5234L20.3718 9.76581" stroke="#1C274C" stroke-width="1.5" stroke-linecap="round"/>
<path d="M15 15V17" stroke="#1C274C" stroke-width="1.5"/>
<path d="M15 25V23M15 23V20.5M15 23H15.5C16.5 23 17.1886 24.0658 17.5 25M15 23H14.5C13.5 23 12.8114 24.0658 12.5 25M9 18.5L8 16C7.5 15 7 14.5 5 14.5M21 18.5L22 16C22.5 15 23 14.5 25 14.5" stroke="#1C274C" stroke-width="1.5" stroke-linecap="round"/>
</svg>
