<svg width="30" height="30" viewBox="0 0 30 30" fill="none" xmlns="http://www.w3.org/2000/svg">
<path d="M25 15.7501C25.4142 15.7501 25.75 15.4143 25.75 15.0001C25.75 14.5859 25.4142 14.2501 25 14.2501L25 15.7501ZM5 14.2501C4.58579 14.2501 4.25 14.5859 4.25 15.0001C4.25 15.4143 4.58579 15.7501 5 15.7501L5 14.2501ZM15.75 5C15.75 4.58579 15.4142 4.25 15 4.25C14.5858 4.25 14.25 4.58579 14.25 5L15.75 5ZM14.25 25C14.25 25.4142 14.5858 25.75 15 25.75C15.4142 25.75 15.75 25.4142 15.75 25L14.25 25ZM25 14.2501L15 14.2501L15 15.7501L25 15.7501L25 14.2501ZM15 14.2501L5 14.2501L5 15.7501L15 15.7501L15 14.2501ZM14.25 5L14.25 15.0001L15.75 15.0001L15.75 5L14.25 5ZM14.25 15.0001L14.25 25L15.75 25L15.75 15.0001L14.25 15.0001Z" fill="#1C274C"/>
</svg>
