<svg width="30" height="30" viewBox="0 0 30 30" fill="none" xmlns="http://www.w3.org/2000/svg">
<path d="M20.7127 11C20.7369 11.1582 20.7738 11.2894 20.8327 11.4128C20.9813 11.7242 21.2529 11.9512 21.7961 12.4052L22.2906 12.8185C24.202 14.416 25.1577 15.2148 24.9787 16.1603C24.7997 17.1059 23.6046 17.572 21.2142 18.5043L20.5958 18.7454C19.9165 19.0104 19.5769 19.1428 19.3222 19.3918C19.0675 19.6409 18.9266 19.9783 18.6448 20.6531L18.3882 21.2675C17.3964 23.6423 16.9005 24.8297 15.9545 24.9842C15.0085 25.1386 14.2389 24.1578 12.6998 22.1963L12.3016 21.6888C11.8643 21.1314 11.6456 20.8526 11.3396 20.6952C11.0336 20.5377 10.6749 20.5192 9.95753 20.4823L9.30443 20.4487C6.78003 20.3189 5.51782 20.254 5.11218 19.4039C4.70653 18.5538 5.42609 17.4815 6.86521 15.3369L7.23753 14.7821C7.64648 14.1727 7.85096 13.868 7.91653 13.5216C7.9821 13.1752 7.90135 12.8264 7.73983 12.1287L7.59279 11.4936C7.02442 9.03855 6.74024 7.81103 7.43551 7.1312C8.13079 6.45136 9.34506 6.76944 11.7736 7.4056L12.4019 7.57019C13.092 7.75097 13.4371 7.84135 13.7836 7.78478C14.1301 7.7282 14.4389 7.53106 15.0565 7.13679L15.6187 6.77783C17.7918 5.39036 18.8784 4.69663 19.7137 5.12656C20.2323 5.39346 20.4408 5.98365 20.5392 7" stroke="#1C274C" stroke-width="1.5" stroke-linecap="round"/>
<path d="M22.5303 21.4697C22.2374 21.1768 21.7626 21.1768 21.4697 21.4697C21.1768 21.7626 21.1768 22.2374 21.4697 22.5303L22.5303 21.4697ZM23.4697 24.5303C23.7626 24.8232 24.2374 24.8232 24.5303 24.5303C24.8232 24.2374 24.8232 23.7626 24.5303 23.4697L23.4697 24.5303ZM21.4697 22.5303L23.4697 24.5303L24.5303 23.4697L22.5303 21.4697L21.4697 22.5303Z" fill="#1C274C"/>
</svg>
