<svg width="30" height="30" viewBox="0 0 30 30" fill="none" xmlns="http://www.w3.org/2000/svg">
<path d="M11 21.75C11.4142 21.75 11.75 21.4142 11.75 21C11.75 20.5858 11.4142 20.25 11 20.25V21.75ZM15 20.25C14.5858 20.25 14.25 20.5858 14.25 21C14.25 21.4142 14.5858 21.75 15 21.75V20.25ZM25.75 17.4444V15H24.25V17.4444H25.75ZM20.25 15V16.2H21.75V15H20.25ZM5.75 17.4444V15H4.25V17.4444H5.75ZM9.8 17.75H20.2V16.25H9.8V17.75ZM8.25 15V16.2H9.75V15H8.25ZM9.8 16.25C9.77239 16.25 9.75 16.2276 9.75 16.2H8.25C8.25 17.056 8.94396 17.75 9.8 17.75V16.25ZM7 13.75C7.69036 13.75 8.25 14.3096 8.25 15H9.75C9.75 13.4812 8.51878 12.25 7 12.25V13.75ZM5.75 15C5.75 14.3096 6.30964 13.75 7 13.75V12.25C5.48122 12.25 4.25 13.4812 4.25 15H5.75ZM20.25 16.2C20.25 16.2276 20.2276 16.25 20.2 16.25V17.75C21.056 17.75 21.75 17.056 21.75 16.2H20.25ZM23 12.25C21.4812 12.25 20.25 13.4812 20.25 15H21.75C21.75 14.3096 22.3096 13.75 23 13.75V12.25ZM25.75 15C25.75 13.4812 24.5188 12.25 23 12.25V13.75C23.6904 13.75 24.25 14.3096 24.25 15H25.75ZM8.55556 20.25C7.00609 20.25 5.75 18.9939 5.75 17.4444H4.25C4.25 19.8223 6.17767 21.75 8.55556 21.75V20.25ZM24.25 17.4444C24.25 18.9939 22.9939 20.25 21.4444 20.25V21.75C23.8223 21.75 25.75 19.8223 25.75 17.4444H24.25ZM11 20.25H8.55556V21.75H11V20.25ZM21.4444 20.25H15V21.75H21.4444V20.25Z" fill="#1C274C"/>
<path d="M18 8C18.9293 8 19.394 8 19.7804 8.07686C21.3671 8.39249 22.6075 9.63288 22.9231 11.2196C23 11.606 23 12.0707 23 13M7 13C7 12.0707 7 11.606 7.07686 11.2196C7.39249 9.63288 8.63288 8.39249 10.2196 8.07686C10.606 8 11.0707 8 12 8H14" stroke="#1C274C" stroke-width="1.5" stroke-linecap="round"/>
<path d="M23 22V21M7 22V21" stroke="#1C274C" stroke-width="1.5" stroke-linecap="round"/>
</svg>
