<svg width="30" height="30" viewBox="0 0 30 30" fill="none" xmlns="http://www.w3.org/2000/svg">
<path d="M23 15V17C23 20.7712 23 22.6569 21.8284 23.8284C20.6569 25 18.7712 25 15 25C11.2288 25 9.34315 25 8.17157 23.8284C7 22.6569 7 20.7712 7 17V13C7 9.22876 7 7.34315 8.17157 6.17157C9.34315 5 11.2288 5 15 5C18.7712 5 20.6569 5 21.8284 6.17157C22.7715 7.11466 22.9554 8.52043 22.9913 11" stroke="#1C274C" stroke-width="1.5" stroke-linecap="round"/>
<path d="M17 10.5C17 11.6046 16.1046 12.5 15 12.5C13.8954 12.5 13 11.6046 13 10.5C13 9.39543 13.8954 8.5 15 8.5C16.1046 8.5 17 9.39543 17 10.5Z" stroke="#1C274C" stroke-width="1.5"/>
<path d="M18 18.5C18 20.1569 16.6569 21.5 15 21.5C13.3431 21.5 12 20.1569 12 18.5C12 16.8431 13.3431 15.5 15 15.5C16.6569 15.5 18 16.8431 18 18.5Z" stroke="#1C274C" stroke-width="1.5"/>
</svg>
