<svg width="31" height="30" viewBox="0 0 31 30" fill="none" xmlns="http://www.w3.org/2000/svg">
<path d="M12.6699 7C13.0818 5.83481 14.193 5 15.4992 5C16.8054 5 17.9167 5.83481 18.3285 7" stroke="white" stroke-width="1.5" stroke-linecap="round"/>
<path d="M24.0001 9H7" stroke="white" stroke-width="1.5" stroke-linecap="round"/>
<path d="M21.8727 18.3991C21.6957 21.054 21.6073 22.3815 20.7422 23.1907C19.8772 24 18.5468 24 15.886 24H15.1127C12.4519 24 11.1215 24 10.2565 23.1907C9.39145 22.3815 9.30295 21.054 9.12596 18.3991L8.66602 11.5M22.3327 11.5L22.1327 14.5" stroke="white" stroke-width="1.5" stroke-linecap="round"/>
<path d="M13.7463 13.9254C13.7051 13.5132 13.3375 13.2125 12.9254 13.2537C12.5132 13.2949 12.2125 13.6625 12.2537 14.0746L13.7463 13.9254ZM12.7537 19.0746C12.7949 19.4868 13.1625 19.7875 13.5746 19.7463C13.9868 19.7051 14.2875 19.3375 14.2463 18.9254L12.7537 19.0746ZM12.2537 14.0746L12.7537 19.0746L14.2463 18.9254L13.7463 13.9254L12.2537 14.0746Z" fill="white"/>
<path d="M18.7463 14.0746C18.7875 13.6625 18.4868 13.2949 18.0746 13.2537C17.6625 13.2125 17.2949 13.5132 17.2537 13.9254L18.7463 14.0746ZM16.7537 18.9254C16.7125 19.3375 17.0132 19.7051 17.4254 19.7463C17.8375 19.7875 18.2051 19.4868 18.2463 19.0746L16.7537 18.9254ZM17.2537 13.9254L16.7537 18.9254L18.2463 19.0746L18.7463 14.0746L17.2537 13.9254Z" fill="white"/>
</svg>
